<svg height="464pt" viewBox="-112 0 464 464.07896" width="464pt" xmlns="http://www.w3.org/2000/svg"><path d="m16.039062 408.078125h48v56h-48zm0 0" fill="#595a6e"/><path d="m176.039062 408.078125h48v56h-48zm0 0" fill="#595a6e"/><path d="m201.078125 324.230469h-162.078125l17.039062-68.152344h128zm0 0" fill="#88d0ef"/><path d="m184.039062 256.078125h-17.039062l17.039062 68.152344h17.039063zm0 0" fill="#6ab2cc"/><path d="m224.039062 104.078125c.035157-43.566406-27.089843-82.535156-67.957031-97.632813-40.863281-15.097656-86.808593-3.125-115.109375 29.996094-28.300781 33.121094-32.957031 80.371094-11.667968 118.382813h-.066407l90.800781 157.253906 90.792969-157.253906h-.054687c8.707031-15.496094 13.273437-32.972657 13.261718-50.746094zm0 0" fill="#31b1ae"/><path d="m192.039062 104.078125c0 39.765625-32.234374 72-72 72-39.765624 0-72-32.234375-72-72 0-39.761719 32.234376-72 72-72 39.765626 0 72 32.238281 72 72zm0 0" fill="#e8d8bf"/><path d="m96.039062 80.078125 48 24-48 24 8-24zm0 0" fill="#fff"/><path d="m223.777344 416.078125h-207.472656c-8.984376 0-16.2656255-7.28125-16.2656255-16.261719v-52.722656c0-6.652344 4.0468755-12.632812 10.2226565-15.101562l29.777343-11.914063h160l29.777344 11.914063c6.175782 2.46875 10.222656 8.449218 10.222656 15.101562v52.722656c0 8.980469-7.28125 16.261719-16.261718 16.261719zm0 0" fill="#d1e3ee"/><path d="m229.816406 331.992188-29.777344-11.914063h-16l29.777344 11.914063c6.175782 2.46875 10.226563 8.449218 10.222656 15.101562v52.722656c0 8.980469-7.28125 16.261719-16.261718 16.261719h16c8.980468 0 16.261718-7.28125 16.261718-16.261719v-52.722656c.003907-6.652344-4.046874-12.632812-10.222656-15.101562zm0 0" fill="#8d9aa5"/><path d="m208.039062 368.078125c0 8.835937-7.164062 16-16 16-8.835937 0-16-7.164063-16-16s7.164063-16 16-16c8.835938 0 16 7.164063 16 16zm0 0" fill="#e8d8bf"/><path d="m64.039062 368.078125c0 8.835937-7.164062 16-16 16-8.835937 0-16-7.164063-16-16s7.164063-16 16-16c8.835938 0 16 7.164063 16 16zm0 0" fill="#e8d8bf"/><g fill="#8d9aa5"><path d="m96.039062 344.078125h48v16h-48zm0 0"/><path d="m96.039062 376.078125h48v16h-48zm0 0"/></g></svg>